<svg xmlns="http://www.w3.org/2000/svg" version="1.1" xmlns:xlink="http://www.w3.org/1999/xlink" width="512" height="512" x="0" y="0" viewBox="0 0 64 64" style="enable-background:new 0 0 512 512" xml:space="preserve" class=""><g><path d="M43 22.182a1 1 0 0 0-1-1h-1.267a9.103 9.103 0 0 0-.566-1.364l.897-.897a1 1 0 0 0 0-1.414l-2.571-2.571a1 1 0 0 0-1.414 0l-.897.897a9.12 9.12 0 0 0-1.364-.566V14a1 1 0 0 0-1-1h-3.636a1 1 0 0 0-1 1v1.267a9.103 9.103 0 0 0-1.364.566l-.897-.897a1 1 0 0 0-1.414 0l-2.571 2.571a1 1 0 0 0 0 1.414l.897.897a9.12 9.12 0 0 0-.566 1.364H22a1 1 0 0 0-1 1v3.636a1 1 0 0 0 1 1h1.267a9.103 9.103 0 0 0 .566 1.364l-.897.897a1 1 0 0 0 0 1.414l2.571 2.571a1 1 0 0 0 1.414 0l.897-.897a9.12 9.12 0 0 0 1.364.566V34a1 1 0 0 0 1 1h3.636a1 1 0 0 0 1-1v-1.267a9.103 9.103 0 0 0 1.364-.566l.897.897a1 1 0 0 0 1.414 0l2.571-2.571a1 1 0 0 0 0-1.414l-.897-.897a9.12 9.12 0 0 0 .566-1.364H42a1 1 0 0 0 1-1zm-2 2.636h-.348a1.909 1.909 0 0 0-1.812 1.354 7.147 7.147 0 0 1-.467 1.125 1.909 1.909 0 0 0 .323 2.242l.247.247-1.157 1.157-.247-.247a1.907 1.907 0 0 0-2.242-.323 7.171 7.171 0 0 1-1.125.467 1.909 1.909 0 0 0-1.354 1.812V33h-1.636v-.348a1.909 1.909 0 0 0-1.354-1.812 7.147 7.147 0 0 1-1.125-.467 1.91 1.91 0 0 0-2.242.323l-.247.247-1.157-1.157.247-.247a1.908 1.908 0 0 0 .323-2.242 7.171 7.171 0 0 1-.467-1.125 1.909 1.909 0 0 0-1.812-1.354H23v-1.636h.348a1.909 1.909 0 0 0 1.812-1.354 7.147 7.147 0 0 1 .467-1.125 1.909 1.909 0 0 0-.323-2.242l-.247-.247 1.157-1.157.247.247a1.907 1.907 0 0 0 2.242.323 7.171 7.171 0 0 1 1.125-.467 1.909 1.909 0 0 0 1.354-1.812V15h1.636v.348a1.909 1.909 0 0 0 1.354 1.812 7.147 7.147 0 0 1 1.125.467 1.909 1.909 0 0 0 2.242-.323l.247-.247 1.157 1.157-.247.247a1.908 1.908 0 0 0-.323 2.242 7.171 7.171 0 0 1 .467 1.125 1.909 1.909 0 0 0 1.812 1.354H41z" fill="#46B58B" opacity="1" data-original="#000000" class=""></path><path d="M32 18a6 6 0 1 0 6 6 6.007 6.007 0 0 0-6-6zm0 10a4 4 0 1 1 4-4 4.005 4.005 0 0 1-4 4zM3 63h58a1 1 0 0 0 .919-1.394l-6-14A1 1 0 0 0 55 47H43v2h11.34l5.143 12H4.517l5.142-12H21v-2H9a1 1 0 0 0-.919.606l-6 14A1 1 0 0 0 3 63zM29 38h2v6h-2z" fill="#46B58B" opacity="1" data-original="#000000" class=""></path><path d="M29 46h2v2h-2zM29 50h2v5h-2zM33 38h2v7h-2zM33 47h2v8h-2zM37 40h2v9h-2zM25 51h2v2h-2zM25 39h2v10h-2zM37 51h2v2h-2zM48 4a1 1 0 0 0-1 1v6a1 1 0 0 0 1 1h3v2h-2a1 1 0 0 0-1 1v5a1 1 0 0 0 1 1h5a1 1 0 0 0 1-1v-2h5a1 1 0 0 0 1-1V9a1 1 0 0 0-1-1h-5V5a1 1 0 0 0-1-1zm1 6V6h4v2h-1a1 1 0 0 0-1 1v1zm4 9h-3v-3h1v1a1 1 0 0 0 1 1h1zm6-9v6h-6v-6zM35 9a1 1 0 0 0 1-1V2a1 1 0 0 0-1-1h-6a1 1 0 0 0-1 1v6a1 1 0 0 0 1 1zm-5-6h4v4h-4zM4 31h6a1 1 0 0 0 1-1v-3h5a1 1 0 0 0 1-1v-8a1 1 0 0 0-1-1H8a1 1 0 0 0-1 1v5H4a1 1 0 0 0-1 1v6a1 1 0 0 0 1 1zm5-12h6v6H9zm-4 6h2v1a1 1 0 0 0 1 1h1v2H5zM10 14h5a1 1 0 0 0 1-1V8a1 1 0 0 0-1-1h-5a1 1 0 0 0-1 1v5a1 1 0 0 0 1 1zm1-5h3v3h-3zM47 31a1 1 0 0 0-1 1v4a1 1 0 0 0 1 1h4a1 1 0 0 0 1-1v-4a1 1 0 0 0-1-1zm3 4h-2v-2h2z" fill="#46B58B" opacity="1" data-original="#000000" class=""></path><path d="M11.693 52H19v-2h-8a1 1 0 0 0-.937.649l-3 8A1 1 0 0 0 8 60h48a1 1 0 0 0 .937-1.351l-3-8A1 1 0 0 0 53 50h-8v2h7.307l2.25 6H9.443z" fill="#46B58B" opacity="1" data-original="#000000" class=""></path></g></svg>