<svg xmlns="http://www.w3.org/2000/svg" version="1.1" xmlns:xlink="http://www.w3.org/1999/xlink" width="512" height="512" x="0" y="0" viewBox="0 0 511.863 511.863" style="enable-background:new 0 0 512 512" xml:space="preserve"><g><path d="M268.337 129.55c-7.18 0-13 5.82-13 13v25c0 7.18 5.82 13 13 13s13-5.82 13-13v-25c0-7.18-5.82-13-13-13zM268.337 405c-7.18 0-13 5.82-13 13v25c0 7.18 5.82 13 13 13s13-5.82 13-13v-25c0-7.18-5.82-13-13-13zM418.547 279.77h-25c-7.18 0-13 5.82-13 13s5.82 13 13 13h25c7.18 0 13-5.82 13-13s-5.82-13-13-13zM384.166 390.219a12.734 12.734 0 0 0-.419-.419l-17.68-17.68c-4.96-5.191-13.189-5.379-18.38-.419s-5.379 13.189-.419 18.38c.136.143.276.282.419.419l17.68 17.68c4.96 5.191 13.189 5.379 18.38.419s5.379-13.189.419-18.38zM376.381 183.952a12.999 12.999 0 0 0-17.634.048l-69 69c-21.989-11.852-49.423-3.634-61.275 18.355a45.223 45.223 0 0 0-5.415 21.475l.03-.06c-.013 24.991 20.235 45.261 45.226 45.274 24.991.013 45.261-20.235 45.274-45.226a45.254 45.254 0 0 0-5.42-21.498l69-69c4.855-5.289 4.503-13.513-.786-18.368zM268.337 312.02c-10.631 0-19.25-8.619-19.25-19.25.011-10.627 8.623-19.239 19.25-19.25 10.631 0 19.25 8.619 19.25 19.25s-8.619 19.25-19.25 19.25z" fill="#0B4461" opacity="1" data-original="#000000"></path><path d="M473.737 133.45c4.96 5.191 13.189 5.379 18.38.419 5.191-4.96 5.379-13.189.419-18.38a11.825 11.825 0 0 0-.419-.419L446.037 69c-5.191-4.96-13.42-4.772-18.38.419-4.801 5.025-4.801 12.936 0 17.961l13.91 13.91-27.61 27.61a217.36 217.36 0 0 0-132.61-55V26h45.9c7.18 0 13-5.82 13-13s-5.82-13-13-13h-117.81c-7.18 0-13 5.82-13 13s5.82 13 13 13h45.9v47.92a217.614 217.614 0 0 0-142 63.82c-4.96 5.191-4.772 13.42.419 18.38 5.025 4.801 12.937 4.801 17.961 0 75.461-75.461 197.807-75.462 273.268-.002l.002.002c75.34 75.34 75.34 197.93 0 273.27s-197.93 75.34-273.27 0c-5.191-4.96-13.42-4.772-18.38.419-4.801 5.025-4.801 12.936 0 17.961 85.68 85.55 224.488 85.444 310.038-.235 81.871-81.995 85.797-213.543 8.962-300.275l27.62-27.62 13.78 13.81z" fill="#0B4461" opacity="1" data-original="#000000"></path><path d="M147.947 196.4H28.727c-7.18 0-13 5.82-13 13s5.82 13 13 13h119.22c7.18 0 13-5.82 13-13s-5.82-13-13-13zM178.247 279.77H59.017c-7.18 0-13 5.82-13 13s5.82 13 13 13h119.23c7.18 0 13-5.82 13-13s-5.82-13-13-13zM147.947 363.13H28.727c-7.18 0-13 5.82-13 13s5.82 13 13 13h119.22c7.18 0 13-5.82 13-13s-5.82-13-13-13z" fill="#0B4461" opacity="1" data-original="#000000"></path></g></svg>