<svg xmlns="http://www.w3.org/2000/svg" version="1.1" xmlns:xlink="http://www.w3.org/1999/xlink" width="512" height="512" x="0" y="0" viewBox="0 0 512 512" style="enable-background:new 0 0 512 512" xml:space="preserve" class=""><g><path d="M445.729 371.072a51.399 51.399 0 0 0 12.553-33.672c0-28.374-23.081-51.458-51.452-51.458a51.425 51.425 0 0 0-38.901 17.782 51.432 51.432 0 0 0-12.551 33.676c0 28.371 23.081 51.452 51.452 51.452a51.421 51.421 0 0 0 38.899-17.78zM370.39 337.4a36.414 36.414 0 0 1 8.888-23.849 36.421 36.421 0 0 1 27.552-12.597c20.094 0 36.441 16.35 36.441 36.447a36.39 36.39 0 0 1-8.888 23.844 36.422 36.422 0 0 1-27.553 12.597c-20.093-.002-36.44-16.349-36.44-36.442z" fill="#46B58B" opacity="1" data-original="#000000" class=""></path><path d="M476.164 268.609c-17.946-18.09-41.733-28.381-66.978-28.975-26.592-.626-51.685 9.247-70.681 27.801-19.001 18.559-29.466 43.406-29.466 69.964 0 12.705 2.421 25.095 7.196 36.825a7.506 7.506 0 0 0 13.903-5.659c-4.04-9.924-6.087-20.41-6.087-31.166 0-22.481 8.858-43.514 24.943-59.225 16.08-15.705 37.339-24.072 59.838-23.532 21.348.502 41.476 9.218 56.675 24.54 15.199 15.321 23.755 35.52 24.094 56.874.291 18.42-5.343 35.941-16.345 50.743l-40.815 56.279a89.223 89.223 0 0 0-15.07 33.735l-3.055 14.137c-.757 3.5-3.904 6.038-7.484 6.038s-6.727-2.54-7.483-6.039l-3.056-14.136a89.224 89.224 0 0 0-15.072-33.736l-35.264-48.625a7.506 7.506 0 0 0-12.152 8.814l35.264 48.624a74.288 74.288 0 0 1 12.551 28.095l3.055 14.136C386.913 504.482 396.231 512 406.83 512s19.917-7.52 22.155-17.879l3.056-14.137a74.303 74.303 0 0 1 12.55-28.094l40.762-56.208c12.942-17.409 19.599-38.11 19.255-59.865-.398-25.252-10.5-49.12-28.444-67.208zM87.172 122.936a42.668 42.668 0 0 0 32.275-14.751 42.655 42.655 0 0 0 10.417-27.941 42.336 42.336 0 0 0-3.933-17.897 7.505 7.505 0 1 0-13.625 6.299 27.457 27.457 0 0 1 2.547 11.598 27.641 27.641 0 0 1-6.752 18.111 27.667 27.667 0 0 1-20.929 9.57c-15.263 0-27.68-12.417-27.68-27.68a27.662 27.662 0 0 1 6.752-18.116 27.667 27.667 0 0 1 20.929-9.57c1.418 0 2.841.108 4.231.32a7.502 7.502 0 0 0 8.554-6.284 7.505 7.505 0 0 0-6.284-8.554 43.159 43.159 0 0 0-6.502-.493 42.668 42.668 0 0 0-32.277 14.754A42.68 42.68 0 0 0 44.48 80.245c.001 23.539 19.152 42.691 42.692 42.691z" fill="#46B58B" opacity="1" data-original="#000000" class=""></path><path d="M55.727 172.79a57.982 57.982 0 0 1 9.798 21.931l2.446 11.32c1.94 8.979 10.015 15.495 19.202 15.495s17.262-6.517 19.202-15.495l2.446-11.319a57.984 57.984 0 0 1 9.798-21.931l32.627-44.99c10.56-14.204 15.993-31.096 15.712-48.848-.326-20.606-8.568-40.083-23.209-54.841C129.105 9.352 109.696.956 89.094.47 67.398-.045 46.922 8.016 31.421 23.155 15.917 38.298 7.377 58.572 7.377 80.242c0 17.278 5.437 33.724 15.671 47.488zM41.91 33.893c12.208-11.924 28.222-18.435 45.252-18.435.523 0 1.052.006 1.577.019 16.704.393 32.455 7.214 44.351 19.206s18.593 27.797 18.857 44.507c.228 14.416-4.181 28.128-12.801 39.726l-32.679 45.06a72.93 72.93 0 0 0-12.318 27.573l-2.446 11.319c-.458 2.119-2.363 3.656-4.529 3.656s-4.072-1.537-4.529-3.655l-2.446-11.319a72.916 72.916 0 0 0-12.319-27.573l-32.731-45.132c-8.346-11.227-12.758-24.576-12.758-38.603-.003-17.593 6.931-34.054 19.519-46.349zM431.367 85.964a7.506 7.506 0 0 0 11.082 10.125l.13-.14c.181-.195.361-.391.526-.583a36.118 36.118 0 0 0 8.822-23.661c0-19.936-16.218-36.156-36.152-36.156a36.153 36.153 0 0 0-27.191 12.336 7.506 7.506 0 1 0 11.292 9.891 21.144 21.144 0 0 1 15.9-7.217c11.657 0 21.141 9.486 21.141 21.145 0 5.085-1.83 9.995-5.161 13.838z" fill="#46B58B" opacity="1" data-original="#000000" class=""></path><path d="M359.234 40.398a7.506 7.506 0 0 0 10.475-1.717c10.956-15.253 28.693-24.113 47.438-23.654 14.617.344 28.4 6.314 38.812 16.808 10.411 10.495 16.272 24.327 16.503 38.948.199 12.615-3.659 24.616-11.209 34.775l-7.759 10.699a7.505 7.505 0 0 0 12.15 8.812l7.707-10.628c9.489-12.765 14.372-27.944 14.119-43.896-.292-18.518-7.7-36.021-20.855-49.282C453.457 8.001 436.015.456 417.5.02a71.752 71.752 0 0 0-59.983 29.904c-.662.923-2.631 5.625.524 9.404.352.39.748.751 1.193 1.07zM346.96 449.464a7.477 7.477 0 0 0-2.503-5.645 7.505 7.505 0 0 0-10.597.607c-4.767 5.346-9.736 10.246-14.786 14.592a209.496 209.496 0 0 1-32.455 8.382c8.37-18.011 15.55-42.776 21.035-72.762a7.505 7.505 0 1 0-14.765-2.701c-6.182 33.796-14.777 61.201-24.364 77.829-6.265.546-12.583.833-18.953.833-6.393 0-12.715-.299-18.966-.854-11.057-19.13-20.189-51.127-26.405-90.27a560.978 560.978 0 0 0 45.371 1.83c14.209 0 28.554-.538 42.635-1.599a7.507 7.507 0 0 0 6.921-8.048c-.312-4.134-3.923-7.225-8.048-6.921a554.727 554.727 0 0 1-41.508 1.557c-16.138 0-32.062-.71-47.596-2.065-4.051-30.321-6.428-64.173-6.726-99.223h121.716a7.506 7.506 0 0 0 7.506-7.506c0-3.472-2.361-6.385-5.562-7.242-.272-34.658-2.489-67.888-6.336-97.911 25.051 2.937 48.864 7.602 70.619 13.799 4.618 16.645 7.992 34.114 9.963 51.925a7.506 7.506 0 0 0 14.92-1.652 348.29 348.29 0 0 0-7.991-45.013c20.396 6.928 38.547 15.305 53.665 24.942a212.081 212.081 0 0 1 7.765 38.882 7.505 7.505 0 0 0 8.241 6.69 7.506 7.506 0 0 0 6.691-8.24c-5.791-55.786-31.958-107.35-73.678-145.191-42.018-38.11-96.424-59.099-153.196-59.099-23.161 0-46.016 3.462-67.929 10.289a7.506 7.506 0 1 0 4.465 14.333 211.558 211.558 0 0 1 26.42-6.394c-9.952 21.444-18.161 52.328-23.818 89.377-8.549.937-17.011 2.05-25.337 3.384a7.506 7.506 0 0 0 2.376 14.822 494.739 494.739 0 0 1 20.807-2.877 730.428 730.428 0 0 0-3.12 29.063 7.505 7.505 0 0 0 7.485 8.161 7.506 7.506 0 0 0 7.468-6.851 698.08 698.08 0 0 1 3.529-31.919 549.54 549.54 0 0 1 95.25-.007c4.051 30.321 6.428 64.173 6.726 99.223H195.261c.099-11.955.421-23.899.988-35.604a7.505 7.505 0 0 0-7.133-7.86c-4.158-.189-7.66 2.994-7.86 7.133a906.474 906.474 0 0 0-1.005 36.33h-76.339c.049-2.179.116-4.413.207-6.745a7.507 7.507 0 0 0-7.206-7.794c-4.123-.178-7.632 3.063-7.794 7.206a418.784 418.784 0 0 0-.224 7.332H36.612c.691-19.861 4.114-39.423 10.219-58.254a7.506 7.506 0 0 0-14.28-4.628c-7.356 22.697-11.086 46.378-11.086 70.388 0 60.93 23.727 118.213 66.811 161.298 43.085 43.084 100.367 66.811 161.298 66.811 34.418 0 67.505-7.482 98.34-22.237a7.505 7.505 0 0 0 3.531-10.009 7.486 7.486 0 0 0-4.485-3.897zm-36.535-312.449c-5.601-36.712-13.749-67.726-23.794-89.367a212.521 212.521 0 0 1 32.511 8.411c18.721 16.132 35.284 38.92 47.945 66.028 4.032 8.633 7.667 17.72 10.887 27.15-21.111-5.477-43.837-9.605-67.549-12.222zm135.487 37.536c-15.004-7.831-32.026-14.679-50.591-20.41-4.108-13.451-8.999-26.343-14.633-38.406-7.538-16.139-16.423-30.871-26.313-43.794a213.207 213.207 0 0 1 38.307 27.671c23.219 21.059 41.278 46.664 53.23 74.939zm-196.34-40.853c-15.322 0-30.493.618-45.411 1.819 6.308-39.423 15.597-71.451 26.462-90.273 6.282-.553 12.602-.84 18.949-.84 6.358 0 12.683.289 18.962.847 11.059 19.131 20.193 51.133 26.41 90.283a561.421 561.421 0 0 0-45.372-1.836zm-37.054 333.671a211.278 211.278 0 0 1-32.54-8.449c-25.44-21.917-45.641-54.525-58.828-93.145 21.115 5.477 43.854 9.598 67.569 12.215 5.602 36.719 13.753 67.736 23.799 89.379zM186.57 362.656c-25.066-2.938-48.891-7.607-70.656-13.809-7.232-26.126-11.401-54.497-12.01-83.839h76.333c.282 34.563 2.497 67.701 6.333 97.648zM36.621 265.008h52.272c.547 27.256 4.062 53.766 10.188 78.596-20.385-6.922-38.527-15.293-53.643-24.921a212.183 212.183 0 0 1-8.817-53.675zM53.3 340.492c14.992 7.818 32.009 14.648 50.553 20.37 9.562 31.269 23.412 59.299 40.752 82.034-40.597-23.074-72.921-59.089-91.305-102.404z" fill="#46B58B" opacity="1" data-original="#000000" class=""></path></g></svg>