<svg xmlns="http://www.w3.org/2000/svg" version="1.1" xmlns:xlink="http://www.w3.org/1999/xlink" width="512" height="512" x="0" y="0" viewBox="0 0 450 450" style="enable-background:new 0 0 512 512" xml:space="preserve"><defs><linearGradient id="a" x1="65.172" x2="384.862" y1="308.147" y2="-11.544" gradientTransform="matrix(1 0 0 -1 0 452)" gradientUnits="userSpaceOnUse"><stop offset="0" stop-color="#00dbde"></stop><stop offset="1" stop-color="#fc00ff"></stop></linearGradient></defs><g><linearGradient id="a" x1="65.172" x2="384.862" y1="308.147" y2="-11.544" gradientTransform="matrix(1 0 0 -1 0 452)" gradientUnits="userSpaceOnUse"><stop offset="0" stop-color="#00dbde"></stop><stop offset="1" stop-color="#fc00ff"></stop></linearGradient><path fill="url(&quot;#a&quot;)" d="M359.8 374.7c9-21.2 33.5-31.1 54.8-22.1 21.2 9 31.1 33.5 22.1 54.8-9 21.2-33.5 31.1-54.8 22.1-21.2-9-31.1-33.5-22.1-54.8zm-173.2 0c9-21.2 33.6-31.1 54.8-22 21.2 9 31.1 33.6 22 54.8-9 21.2-33.6 31.1-54.8 22s-31.1-33.6-22-54.8zM10 390.8c.2-23.1 19-41.6 42-41.5s41.6 19 41.5 42c-.2 23.1-19 41.6-42 41.5s-41.7-19-41.5-42zm251.5-117.9c.8-3.1 1.2-6.4 1.2-9.6 0-3.3-.4-6.5-1.2-9.6-.6-2.1.3-4.4 2.2-5.6l11.5-7.4-5.6-9.6-12.1 6.3c-2 1-4.4.6-5.9-.9-4.6-4.6-10.4-7.9-16.6-9.6-2.1-.6-3.6-2.5-3.8-4.7l-.6-13.6h-11.1l-.6 13.6c-.1 2.2-1.6 4.1-3.8 4.7-6.3 1.7-12 5-16.6 9.6-1.6 1.6-4 1.9-5.9.9l-12.1-6.3-5.6 9.6 11.5 7.4c1.9 1.2 2.8 3.4 2.2 5.6-.8 3.1-1.2 6.4-1.2 9.6 0 3.3.4 6.5 1.2 9.6.6 2.1-.3 4.4-2.2 5.6l-11.5 7.4 5.6 9.6 12.1-6.3c2-1 4.4-.7 5.9.9 4.6 4.6 10.4 7.9 16.6 9.6 2.1.6 3.6 2.5 3.8 4.7l.6 13.6h11.1l.6-13.6c.1-2.2 1.6-4.1 3.8-4.7 6.2-1.7 12-5 16.6-9.6 1.6-1.6 4-1.9 5.9-.9l12.1 6.3 5.6-9.6-11.5-7.4c-1.9-1.2-2.8-3.5-2.2-5.6zM225 279c-8.7 0-15.7-7-15.7-15.7s7-15.7 15.7-15.7 15.7 7 15.7 15.7-7 15.7-15.7 15.7zm57.7-126.4c-14.6 15.2-35 24.6-57.7 24.6s-43.1-9.4-57.7-24.6c15.1-15.7 35.8-24.6 57.7-24.6s42.6 8.9 57.7 24.6zM225 43.8c13.4 0 24.3 10.9 24.3 24.3S238.4 92.4 225 92.4s-24.3-10.9-24.3-24.3 10.9-24.3 24.3-24.3zm0 74c24.3 0 47.4 9.8 64.3 26.9 9.9-13.3 15.7-29.8 15.7-47.6 0-44.1-35.9-80-80-80s-80 35.9-80 80c0 17.8 5.8 34.3 15.7 47.6 16.9-17.1 40-26.9 64.3-26.9zm0-84.2c19 0 34.5 15.5 34.5 34.5S244 102.6 225 102.6s-34.5-15.5-34.5-34.5S206 33.6 225 33.6zm178.4 229.7v76.1c-1.7-.2-3.4-.2-5.1-.2s-3.4.1-5.1.2v-71H272.6a43.613 43.613 0 0 0 0-10.2h125.6c2.9 0 5.2 2.2 5.2 5.1zm-173.3 76.1v-11.2h-10.2v11.2c1.7-.2 3.4-.2 5.1-.2s3.4 0 5.1.2zm-10.2-152.2v11.1h10.2v-11.1c-1.7.1-3.4.1-5.1.1-1.7.1-3.4 0-5.1-.1zm-42.8 76.1c0 1.7.1 3.4.3 5.1H56.8v71c-1.7-.2-3.4-.2-5.1-.2s-3.4.1-5.1.2v-76.1c0-2.8 2.3-5.1 5.1-5.1h125.6c-.1 1.7-.2 3.3-.2 5.1z" opacity="1" data-original="url(#a)"></path></g></svg>