<svg width="192" height="192" viewBox="0 0 192 192" fill="none" xmlns="http://www.w3.org/2000/svg">
<g clip-path="url(#clip0_373_74)">
<path d="M20.83 144.9C44.1 158.35 67.38 171.8 90.71 185.16C93.94 187.02 96.55 187.9 99.75 186.06C123.703 172.273 147.65 158.476 171.59 144.67C173.7 143.45 176 141.17 176 138.92C175.967 110.7 175.943 82.4762 175.93 54.2495C175.93 51.2829 174.66 49.0695 172.12 47.6095C148.6 34.0695 125.08 20.5329 101.56 6.99953C98.31 5.12953 95.6 4.02953 92.39 5.87953C68.4167 19.6795 44.4433 33.4829 20.47 47.2895C15.49 50.1595 16 53.1495 16 59.0595C16.0066 84.6462 16 110.236 15.98 135.83C15.98 140.74 16.74 142.54 20.83 144.9Z" stroke="#A2DBC5" stroke-width="2"/>
<path d="M54.74 110.459C46.09 84.3593 61.38 58.7393 88.03 53.1093C88.3567 53.0427 88.52 52.8427 88.52 52.5093L88.54 25.8093C88.54 25.4427 88.38 25.3493 88.06 25.5293L31.22 58.2793C31.0894 58.355 30.9809 58.465 30.9055 58.5984C30.83 58.7318 30.7902 58.8838 30.79 59.0393L30.78 124.269C30.78 124.776 30.9967 124.903 31.43 124.649L54.4 111.359C54.76 111.153 54.8734 110.853 54.74 110.459Z" stroke="#A2DBC5" stroke-width="2"/>
<path d="M103.98 53.0997C130.83 58.5497 146.07 85.1497 137.17 110.8C137.144 110.879 137.146 110.964 137.175 111.043C137.204 111.121 137.259 111.187 137.33 111.23L160.62 124.87C161.033 125.11 161.24 124.99 161.24 124.51L161.23 59.0497C161.229 58.8917 161.189 58.7374 161.111 58.6022C161.034 58.467 160.923 58.3557 160.79 58.2797L103.99 25.5697C103.643 25.3697 103.47 25.4697 103.47 25.8697L103.49 52.4997C103.49 52.8331 103.653 53.0331 103.98 53.0997Z" stroke="#A2DBC5" stroke-width="2"/>
<path d="M124.78 95.9997C124.78 92.2203 124.036 88.4778 122.589 84.9861C121.143 81.4943 119.023 78.3217 116.351 75.6492C113.678 72.9767 110.505 70.8568 107.014 69.4105C103.522 67.9641 99.7794 67.2197 96 67.2197C88.367 67.2197 81.0467 70.2519 75.6494 75.6492C70.2521 81.0465 67.22 88.3668 67.22 95.9997C67.22 99.7792 67.9644 103.522 69.4107 107.013C70.857 110.505 72.977 113.678 75.6494 116.35C81.0467 121.748 88.367 124.78 96 124.78C99.7794 124.78 103.522 124.035 107.014 122.589C110.505 121.143 113.678 119.023 116.351 116.35C119.023 113.678 121.143 110.505 122.589 107.013C124.036 103.522 124.78 99.7792 124.78 95.9997Z" stroke="#A2DBC5" stroke-width="2"/>
<path d="M78.2999 135.919C72.9333 133.906 67.7566 130.012 62.7699 124.239C62.5632 123.992 62.3199 123.949 62.0399 124.109L38.7499 137.579C38.7062 137.603 38.6697 137.639 38.6443 137.682C38.6189 137.725 38.6055 137.774 38.6055 137.824C38.6055 137.874 38.6189 137.923 38.6443 137.966C38.6697 138.009 38.7062 138.045 38.7499 138.069L95.5099 170.749C95.6601 170.835 95.8301 170.879 96.0036 170.879C96.1771 170.879 96.3481 170.835 96.4999 170.749L153.03 138.199C153.077 138.17 153.116 138.13 153.144 138.083C153.172 138.035 153.187 137.981 153.188 137.927C153.189 137.873 153.176 137.819 153.15 137.772C153.124 137.726 153.086 137.686 153.04 137.659L130.04 124.179C129.956 124.131 129.859 124.112 129.763 124.124C129.667 124.137 129.578 124.181 129.51 124.249C115.137 139.442 98.0666 143.332 78.2999 135.919Z" stroke="#A2DBC5" stroke-width="2"/>
<path d="M102.63 108.74C104.7 109.68 107.14 111.11 109.26 111.24C115.3 111.61 119.29 104.32 115.78 99.6197C115.313 98.993 113.833 97.873 111.34 96.2597C108.14 94.1997 105.837 91.353 104.43 87.7197C103.1 84.2997 104.1 80.4497 101.81 77.5397C99.2999 74.3497 94.7899 73.8597 91.5599 76.2697C87.9699 78.9497 88.9699 82.2297 88.1699 85.6597C87.3232 89.2464 85.5332 92.243 82.7999 94.6497C81.1099 96.1397 77.1599 97.7097 75.8099 100.29C72.2699 107.04 79.1799 113.42 86.2999 110.14C92.3199 107.36 96.0999 105.78 102.63 108.74Z" stroke="#A2DBC5" stroke-width="2"/>
<path d="M90.71 185.16C67.38 171.8 44.1 158.35 20.83 144.9C16.74 142.54 15.98 140.74 15.98 135.83C16 110.236 16.0066 84.6462 16 59.0595C16 53.1495 15.49 50.1595 20.47 47.2895C44.4433 33.4829 68.4167 19.6795 92.39 5.87953C95.6 4.02953 98.31 5.12953 101.56 6.99953C125.08 20.5329 148.6 34.0695 172.12 47.6095C174.66 49.0695 175.93 51.2829 175.93 54.2495C175.943 82.4762 175.967 110.7 176 138.92C176 141.17 173.7 143.45 171.59 144.67C147.65 158.476 123.703 172.273 99.75 186.06C96.55 187.9 93.94 187.02 90.71 185.16ZM54.74 110.46C46.09 84.3595 61.38 58.7395 88.03 53.1095C88.3567 53.0429 88.52 52.8429 88.52 52.5095L88.54 25.8095C88.54 25.4429 88.38 25.3495 88.06 25.5295L31.22 58.2795C31.0893 58.3552 30.9809 58.4652 30.9054 58.5986C30.8299 58.732 30.7901 58.884 30.79 59.0395L30.78 124.27C30.78 124.776 30.9966 124.903 31.43 124.65L54.4 111.36C54.76 111.153 54.8733 110.853 54.74 110.46ZM103.98 53.0995C130.83 58.5495 146.07 85.1495 137.17 110.8C137.144 110.879 137.146 110.964 137.175 111.042C137.204 111.12 137.259 111.186 137.33 111.23L160.62 124.87C161.033 125.11 161.24 124.99 161.24 124.51L161.23 59.0495C161.23 58.8915 161.189 58.7372 161.111 58.602C161.034 58.4668 160.923 58.3556 160.79 58.2795L103.99 25.5695C103.643 25.3695 103.47 25.4695 103.47 25.8695L103.49 52.4995C103.49 52.8329 103.653 53.0329 103.98 53.0995ZM124.78 95.9995C124.78 92.2201 124.036 88.4777 122.589 84.9859C121.143 81.4942 119.023 78.3215 116.351 75.649C113.678 72.9765 110.505 70.8566 107.014 69.4103C103.522 67.9639 99.7794 67.2195 96 67.2195C88.3671 67.2195 81.0467 70.2517 75.6494 75.649C70.2522 81.0463 67.22 88.3666 67.22 95.9995C67.22 99.779 67.9644 103.521 69.4107 107.013C70.8571 110.505 72.977 113.678 75.6494 116.35C81.0467 121.747 88.3671 124.78 96 124.78C99.7794 124.78 103.522 124.035 107.014 122.589C110.505 121.142 113.678 119.023 116.351 116.35C119.023 113.678 121.143 110.505 122.589 107.013C124.036 103.521 124.78 99.779 124.78 95.9995ZM78.3 135.92C72.9333 133.906 67.7566 130.013 62.77 124.24C62.5633 123.993 62.32 123.95 62.04 124.11L38.75 137.58C38.7062 137.604 38.6697 137.639 38.6443 137.682C38.6189 137.725 38.6055 137.775 38.6055 137.825C38.6055 137.875 38.6189 137.924 38.6443 137.967C38.6697 138.01 38.7062 138.045 38.75 138.07L95.51 170.75C95.6601 170.835 95.8302 170.88 96.0037 170.88C96.1772 170.88 96.3482 170.835 96.5 170.75L153.03 138.2C153.077 138.171 153.116 138.131 153.144 138.083C153.172 138.036 153.187 137.982 153.188 137.928C153.189 137.873 153.176 137.82 153.15 137.773C153.124 137.726 153.086 137.687 153.04 137.66L130.04 124.18C129.956 124.131 129.859 124.112 129.763 124.125C129.667 124.137 129.578 124.181 129.51 124.25C115.137 139.443 98.0667 143.333 78.3 135.92Z" fill="#45B68B"/>
<path d="M102.63 108.74C96.0999 105.78 92.3199 107.36 86.2999 110.14C79.1799 113.42 72.2699 107.04 75.8099 100.29C77.1599 97.7097 81.1099 96.1397 82.7999 94.6497C85.5332 92.243 87.3232 89.2464 88.1699 85.6597C88.9699 82.2297 87.9699 78.9497 91.5599 76.2697C94.7899 73.8597 99.2999 74.3497 101.81 77.5397C104.1 80.4497 103.1 84.2997 104.43 87.7197C105.837 91.353 108.14 94.1997 111.34 96.2597C113.833 97.873 115.313 98.993 115.78 99.6197C119.29 104.32 115.3 111.61 109.26 111.24C107.14 111.11 104.7 109.68 102.63 108.74Z" fill="#45B68B"/>
</g>
<defs>
<clipPath id="clip0_373_74">
<rect width="192" height="192" fill="white"/>
</clipPath>
</defs>
</svg>
