<svg width="2048" height="696" viewBox="0 0 2048 696" fill="none" xmlns="http://www.w3.org/2000/svg">
<g clip-path="url(#clip0_366_74)">
<path d="M79.4298 507.31C82.7098 515.42 87.4398 517.8 96.0298 522.76C169.31 565.073 242.596 607.38 315.89 649.68C322.87 653.707 327.816 655.983 330.73 656.51C336.39 657.537 342.04 656.42 347.68 653.16C422.38 610.047 497.07 566.92 571.75 523.78C575.99 521.33 581.99 518.39 585.39 514.88C591.92 508.13 591.93 500.52 591.93 489.99C591.93 407.357 591.93 324.72 591.93 242.08C591.93 231.593 591.643 225.223 591.07 222.97C588.71 213.79 583.15 210.15 575.08 205.49C500.793 162.597 426.506 119.697 352.22 76.7901C346.513 73.4968 342.17 71.5601 339.19 70.9801C330.31 69.2501 324.95 72.4401 317.43 76.7801C241.73 120.453 166.04 164.15 90.3598 207.87C84.8931 211.03 81.1798 215.247 79.2198 220.52C78.2331 223.173 77.7398 227.55 77.7398 233.65C77.7531 321.603 77.6831 409.553 77.5298 497.5C77.5298 500.9 78.1631 504.17 79.4298 507.31Z" stroke="#A3DAC5" stroke-width="2"/>
<path d="M720 273.82L813.36 273.83C813.503 273.83 813.64 273.773 813.741 273.672C813.843 273.571 813.9 273.433 813.9 273.29L813.91 226.61C813.91 226.451 813.846 226.299 813.734 226.186C813.621 226.073 813.469 226.01 813.31 226.01C777.436 226.057 741.526 226.054 705.58 226C696.86 225.987 690.866 226.507 687.6 227.56C680.246 229.934 675.386 234.85 673.02 242.31C672.013 245.484 671.513 250.827 671.52 258.34C671.573 332.394 671.626 406.447 671.68 480.5C671.69 490.98 678.14 500.38 688.18 503.36C690.42 504.027 694.33 504.357 699.91 504.35C738.116 504.324 776.23 504.334 814.25 504.38C814.67 504.38 814.88 504.17 814.88 503.75L814.84 456.94C814.84 456.832 814.797 456.727 814.722 456.65C814.647 456.573 814.546 456.53 814.44 456.53L720.28 456.55C719.633 456.55 719.31 456.224 719.31 455.57V389.83C719.31 389.668 719.374 389.513 719.488 389.399C719.603 389.284 719.758 389.22 719.92 389.22L783.78 389.23C783.912 389.23 784.039 389.177 784.133 389.081C784.227 388.985 784.28 388.856 784.28 388.72L784.29 341.76C784.29 341.686 784.26 341.615 784.208 341.562C784.155 341.51 784.084 341.48 784.01 341.48L720.28 341.5C720.025 341.5 719.781 341.399 719.601 341.219C719.421 341.039 719.32 340.795 719.32 340.54L719.31 274.5C719.31 274.047 719.54 273.82 720 273.82Z" stroke="#85A2B0" stroke-width="2"/>
<path d="M1532.3 226.412C1532.3 226.367 1532.29 226.323 1532.28 226.282C1532.26 226.241 1532.24 226.203 1532.2 226.171C1532.17 226.14 1532.14 226.115 1532.09 226.098C1532.05 226.08 1532.01 226.072 1531.96 226.071L1484.86 225.989C1484.82 225.989 1484.78 225.998 1484.73 226.015C1484.69 226.032 1484.65 226.057 1484.62 226.088C1484.59 226.12 1484.57 226.157 1484.55 226.199C1484.53 226.24 1484.52 226.284 1484.52 226.329L1484.46 264.529C1484.46 264.573 1484.47 264.618 1484.48 264.659C1484.5 264.7 1484.52 264.738 1484.56 264.769C1484.59 264.801 1484.62 264.826 1484.67 264.843C1484.71 264.86 1484.75 264.869 1484.8 264.869L1531.9 264.951C1531.94 264.952 1531.98 264.943 1532.03 264.926C1532.07 264.909 1532.1 264.884 1532.14 264.852C1532.17 264.821 1532.19 264.783 1532.21 264.742C1532.23 264.701 1532.24 264.657 1532.24 264.612L1532.3 226.412Z" stroke="#85A2B0" stroke-width="2"/>
<path d="M1616.57 226.49C1616.57 226.371 1616.52 226.256 1616.44 226.172C1616.35 226.087 1616.24 226.04 1616.12 226.04H1569.26C1569.14 226.04 1569.03 226.087 1568.94 226.172C1568.86 226.256 1568.81 226.371 1568.81 226.49V503.91C1568.81 504.029 1568.86 504.144 1568.94 504.228C1569.03 504.313 1569.14 504.36 1569.26 504.36H1616.12C1616.24 504.36 1616.35 504.313 1616.44 504.228C1616.52 504.144 1616.57 504.029 1616.57 503.91V226.49Z" stroke="#85A2B0" stroke-width="2"/>
<path d="M1532.82 288.93C1532.82 288.85 1532.8 288.771 1532.77 288.697C1532.74 288.623 1532.7 288.556 1532.64 288.499C1532.58 288.442 1532.52 288.397 1532.44 288.367C1532.37 288.336 1532.29 288.32 1532.21 288.32H1485.39C1485.31 288.32 1485.23 288.336 1485.16 288.367C1485.08 288.397 1485.02 288.442 1484.96 288.499C1484.9 288.556 1484.86 288.623 1484.83 288.697C1484.8 288.771 1484.78 288.85 1484.78 288.93V503.75C1484.78 503.83 1484.8 503.91 1484.83 503.984C1484.86 504.058 1484.9 504.125 1484.96 504.182C1485.02 504.238 1485.08 504.283 1485.16 504.314C1485.23 504.345 1485.31 504.36 1485.39 504.36H1532.21C1532.29 504.36 1532.37 504.345 1532.44 504.314C1532.52 504.283 1532.58 504.238 1532.64 504.182C1532.7 504.125 1532.74 504.058 1532.77 503.984C1532.8 503.91 1532.82 503.83 1532.82 503.75V288.93Z" stroke="#85A2B0" stroke-width="2"/>
<path d="M824.61 435.18C834.68 491.73 897.79 521.9 947.73 494.09C970.256 481.55 984.34 461.904 989.98 435.15C990.022 434.952 990.023 434.748 989.983 434.549C989.943 434.351 989.863 434.163 989.748 433.996C989.633 433.829 989.485 433.688 989.313 433.58C989.142 433.473 988.95 433.401 988.75 433.37L943.52 426.231C943.127 426.171 942.883 426.334 942.79 426.721C938.35 445.851 922.54 458.491 903.02 456.351C888.85 454.811 876.06 444.06 872.38 429.93C871.627 427.05 871.253 422.567 871.26 416.481C871.28 402.407 871.29 388.324 871.29 374.231C871.29 362.397 875.23 352.971 883.11 345.951C904.99 326.491 938.48 339.39 942.81 367.58C942.827 367.686 942.885 367.78 942.971 367.844C943.057 367.907 943.164 367.935 943.27 367.921L989.68 361.691C989.759 361.68 989.836 361.653 989.905 361.612C989.975 361.571 990.035 361.516 990.084 361.451C990.132 361.386 990.167 361.312 990.187 361.233C990.207 361.154 990.211 361.071 990.2 360.99C984.86 324.27 956.13 294.971 919.21 289.701C873.24 283.141 830.83 314.971 824.25 360.541C823.637 364.814 823.343 371.467 823.37 380.501C823.41 392.081 823.423 403.664 823.41 415.251C823.403 424.024 823.803 430.667 824.61 435.18Z" stroke="#85A2B0" stroke-width="2"/>
<path d="M1326.03 308.271C1291.88 278.511 1241.84 283.261 1214.99 320.191C1204.47 334.651 1200.54 350.631 1200.55 367.001C1200.6 412.514 1200.68 458.151 1200.81 503.911C1200.81 504.03 1200.86 504.144 1200.94 504.229C1201.03 504.313 1201.14 504.361 1201.26 504.361H1248.22C1248.33 504.361 1248.44 504.315 1248.52 504.235C1248.6 504.154 1248.65 504.045 1248.65 503.931C1248.89 458.204 1249.01 412.477 1249 366.751C1249 361.351 1249.39 357.391 1250.18 354.871C1251.46 350.797 1253.63 347.327 1256.69 344.461C1271.24 330.821 1294.34 335.821 1300.92 354.671C1301.81 357.224 1302.26 360.837 1302.27 365.511C1302.3 411.597 1302.4 457.717 1302.58 503.871C1302.58 504.204 1302.74 504.371 1303.07 504.371L1349.75 504.351C1349.9 504.351 1350.04 504.293 1350.14 504.189C1350.24 504.086 1350.3 503.946 1350.3 503.801C1350.29 459.081 1350.29 414.381 1350.29 369.701C1350.29 363.447 1350.57 359.164 1351.12 356.851C1354.6 342.311 1370.84 333.471 1384.46 337.691C1397.37 341.681 1404.26 352.061 1404.25 365.511C1404.24 411.591 1404.24 457.701 1404.26 503.841C1404.26 504.187 1404.43 504.361 1404.78 504.361L1451.4 504.341C1451.78 504.341 1451.97 504.151 1451.97 503.771C1452.02 457.677 1452.09 411.587 1452.18 365.501C1452.3 299.671 1376.8 264.161 1326.91 308.261C1326.62 308.521 1326.32 308.524 1326.03 308.271Z" stroke="#85A2B0" stroke-width="2"/>
<path d="M1688.99 414.51C1718.61 414.37 1748.24 414.363 1777.87 414.49C1784.36 414.517 1789.07 414.053 1791.99 413.1C1802.43 409.68 1808.02 400.72 1808.05 389.78C1808.06 383.44 1808.04 377.093 1807.98 370.74C1807.71 342.52 1792.9 316.97 1769.45 301.95C1722.75 272.03 1660.88 295.38 1644.26 347.83C1641.82 355.543 1640.59 363.1 1640.57 370.5C1640.53 384.96 1640.52 399.423 1640.55 413.89C1640.57 422.723 1640.94 429.37 1641.66 433.83C1647.53 470.02 1676.7 498.61 1713.16 503.37C1717.07 503.883 1723.72 504.143 1733.12 504.15C1757.36 504.163 1781.58 504.16 1805.77 504.14C1806.06 504.14 1806.2 503.997 1806.2 503.71L1806.17 456.8C1806.17 456.467 1806 456.3 1805.67 456.3C1783.03 456.3 1760.39 456.303 1737.75 456.31C1726.88 456.317 1720.22 456.107 1717.79 455.68C1698.61 452.31 1686.73 434.44 1688.49 414.97C1688.52 414.663 1688.68 414.51 1688.99 414.51Z" stroke="#85A2B0" stroke-width="2"/>
<path d="M1889.59 455.74C1914.51 412.887 1939.46 370.047 1964.43 327.22C1966.58 323.547 1967.92 320.397 1968.47 317.77C1971.53 303 1961.01 288.94 1945.75 288.93C1905.54 288.917 1865.35 288.9 1825.18 288.88C1825.08 288.88 1824.98 288.919 1824.91 288.988C1824.84 289.058 1824.8 289.152 1824.8 289.25V336.22C1824.8 336.5 1824.94 336.64 1825.22 336.64L1902.77 336.61C1903.27 336.61 1903.4 336.827 1903.15 337.26C1878.8 379.113 1854.41 421.013 1829.96 462.96C1826.81 468.367 1824.92 472.2 1824.31 474.46C1821.21 485.91 1828.36 499.03 1839.28 502.67C1842.26 503.663 1848.46 504.16 1857.89 504.16C1895.38 504.16 1932.86 504.157 1970.33 504.15C1970.44 504.15 1970.54 504.107 1970.62 504.03C1970.7 503.953 1970.74 503.849 1970.74 503.74L1970.75 457.02C1970.75 456.829 1970.67 456.646 1970.54 456.511C1970.4 456.376 1970.21 456.3 1970.02 456.3L1889.92 456.31C1889.47 456.31 1889.36 456.12 1889.59 455.74Z" stroke="#85A2B0" stroke-width="2"/>
<path d="M1107.13 502.7C1145.32 494.68 1174.35 461.36 1174.27 422C1174.24 407.587 1174.23 393.17 1174.26 378.75C1174.27 369.877 1173.91 363.23 1173.17 358.81C1163.72 302.4 1101.97 272.2 1051.63 298.38C1025.45 311.99 1006.74 340.84 1006.73 370C1006.73 385.247 1006.74 400.5 1006.76 415.76C1006.77 424.34 1007.19 430.973 1008.04 435.66C1016.3 481.32 1061.02 512.39 1107.13 502.7Z" stroke="#85A2B0" stroke-width="2"/>
<path d="M202.49 316.22C218.98 269.44 260.6 234.24 309.79 225.33C310.517 225.197 310.88 224.76 310.88 224.02L310.9 136.42C310.901 136.359 310.885 136.299 310.855 136.245C310.825 136.192 310.782 136.147 310.729 136.116C310.677 136.084 310.617 136.067 310.555 136.066C310.494 136.066 310.434 136.081 310.38 136.11L126.64 242.21C125.9 242.637 125.53 243.28 125.53 244.14L125.52 456.25C125.521 456.32 125.54 456.388 125.576 456.448C125.612 456.508 125.662 456.558 125.723 456.592C125.783 456.626 125.852 456.644 125.922 456.644C125.991 456.644 126.06 456.625 126.12 456.59L202.21 412.5C202.356 412.416 202.468 412.284 202.527 412.126C202.585 411.969 202.587 411.797 202.53 411.641C191.457 379.374 191.443 347.567 202.49 316.22Z" stroke="#A3DAC5" stroke-width="2"/>
<path d="M359.39 225.281C400.5 232.761 437.07 258.231 457.28 294.921C477.48 331.607 480.713 370.584 466.98 411.851C466.938 411.975 466.941 412.111 466.988 412.235C467.035 412.359 467.124 412.463 467.24 412.531L543.49 457.281C543.543 457.312 543.603 457.329 543.664 457.329C543.726 457.329 543.786 457.312 543.84 457.281C543.894 457.249 543.938 457.204 543.97 457.15C544.002 457.095 544.019 457.033 544.02 456.971V243.241C544.02 242.954 543.897 242.741 543.65 242.601L359.49 136.301C358.997 136.014 358.75 136.157 358.75 136.731V224.511C358.749 224.694 358.813 224.871 358.93 225.012C359.047 225.153 359.21 225.248 359.39 225.281Z" stroke="#A3DAC5" stroke-width="2"/>
<path d="M427.41 363.671C427.41 351.504 425.013 339.456 420.357 328.215C415.701 316.974 408.877 306.76 400.273 298.157C391.67 289.554 381.456 282.729 370.215 278.073C358.975 273.417 346.927 271.021 334.76 271.021C310.188 271.021 286.622 280.782 269.246 298.157C251.871 315.532 242.11 339.098 242.11 363.671C242.11 388.243 251.871 411.809 269.246 429.184C286.622 446.559 310.188 456.321 334.76 456.321C346.927 456.321 358.975 453.924 370.215 449.268C381.456 444.612 391.67 437.787 400.273 429.184C408.877 420.581 415.701 410.367 420.357 399.126C425.013 387.885 427.41 375.838 427.41 363.671Z" stroke="#A3DAC5" stroke-width="2"/>
<path d="M442.31 454.02C385.54 521.48 283.96 520.3 227.1 453.99C227.006 453.883 226.879 453.812 226.741 453.788C226.602 453.764 226.46 453.79 226.34 453.86L150.23 497.96C150.159 498.002 150.101 498.061 150.06 498.132C150.019 498.203 149.998 498.283 149.998 498.365C149.998 498.447 150.019 498.527 150.06 498.598C150.101 498.669 150.159 498.729 150.23 498.77L333.96 604.84C334.209 604.986 334.492 605.064 334.78 605.066C335.068 605.067 335.35 604.993 335.6 604.85L518.84 499.04C518.902 499.004 518.954 498.952 518.99 498.89C519.026 498.828 519.044 498.757 519.044 498.685C519.044 498.613 519.026 498.542 518.99 498.48C518.954 498.418 518.902 498.366 518.84 498.33L443.11 453.89C442.983 453.815 442.834 453.787 442.688 453.81C442.542 453.834 442.408 453.908 442.31 454.02Z" stroke="#A3DAC5" stroke-width="2"/>
<path d="M274.59 371.7C257.03 388.57 273.23 418.51 297.29 411.96C302.64 410.51 309.07 405.75 313.79 403.81C330.41 396.98 347.5 398.55 362.81 407.44C366.816 409.767 369.763 411.2 371.65 411.74C378.903 413.814 385.533 412.854 391.54 408.86C404.1 400.51 406.06 382.79 395.5 372.05C392.68 369.18 388.49 367.1 384.82 364.82C371.64 356.64 363.09 345.07 359.79 329.76C358.49 323.74 359.36 317.3 357.4 311.66C349.69 289.49 319.51 289.86 311.96 312.03C310.91 315.13 310.92 318.72 310.69 322.1C309.35 341.18 299.62 356.24 283.35 365.77C278.936 368.35 276.016 370.327 274.59 371.7Z" stroke="#A3DAC5" stroke-width="2"/>
<path d="M1759.88 365.85C1750.5 327.06 1699.31 327.12 1688.97 365.31C1688.73 366.21 1689.07 366.66 1690 366.66H1759.25C1759.35 366.66 1759.45 366.637 1759.54 366.594C1759.62 366.55 1759.7 366.487 1759.76 366.409C1759.82 366.331 1759.87 366.24 1759.89 366.143C1759.91 366.046 1759.9 365.946 1759.88 365.85Z" stroke="#85A2B0" stroke-width="2"/>
<path d="M1080.51 338.05C1065.19 342.69 1054.41 356.68 1054.46 373C1054.51 387.18 1054.52 401.37 1054.51 415.57C1054.5 421.764 1054.94 426.517 1055.83 429.83C1058.65 440.344 1064.89 447.994 1074.54 452.78C1094.98 462.92 1119.38 451.73 1125.16 430.24C1126.09 426.78 1126.55 421.41 1126.53 414.13C1126.49 401.524 1126.48 388.91 1126.5 376.29C1126.51 370.77 1126.09 366.454 1125.22 363.34C1119.9 344.19 1099.86 332.18 1080.51 338.05Z" stroke="#85A2B0" stroke-width="2"/>
<path d="M79.4298 507.31C78.1631 504.17 77.5298 500.9 77.5298 497.5C77.6831 409.553 77.7531 321.603 77.7398 233.65C77.7398 227.55 78.2331 223.173 79.2198 220.52C81.1798 215.247 84.8931 211.03 90.3598 207.87C166.04 164.15 241.73 120.453 317.43 76.7801C324.95 72.4401 330.31 69.2501 339.19 70.9801C342.17 71.5601 346.513 73.4968 352.22 76.7901C426.506 119.697 500.793 162.597 575.08 205.49C583.15 210.15 588.71 213.79 591.07 222.97C591.643 225.223 591.93 231.593 591.93 242.08C591.93 324.72 591.93 407.357 591.93 489.99C591.93 500.52 591.92 508.13 585.39 514.88C581.99 518.39 575.99 521.33 571.75 523.78C497.07 566.92 422.38 610.047 347.68 653.16C342.04 656.42 336.39 657.537 330.73 656.51C327.816 655.983 322.87 653.707 315.89 649.68C242.596 607.38 169.31 565.073 96.0298 522.76C87.4398 517.8 82.7098 515.42 79.4298 507.31ZM202.49 316.22C218.98 269.44 260.6 234.24 309.79 225.33C310.516 225.197 310.88 224.76 310.88 224.02L310.9 136.42C310.9 136.359 310.885 136.298 310.855 136.245C310.825 136.191 310.782 136.147 310.729 136.115C310.676 136.084 310.616 136.067 310.555 136.066C310.494 136.065 310.433 136.08 310.38 136.11L126.64 242.21C125.9 242.637 125.53 243.28 125.53 244.14L125.52 456.25C125.521 456.32 125.54 456.388 125.576 456.448C125.611 456.508 125.662 456.557 125.723 456.592C125.783 456.626 125.852 456.644 125.921 456.644C125.991 456.643 126.059 456.625 126.12 456.59L202.21 412.5C202.356 412.416 202.468 412.283 202.527 412.126C202.585 411.969 202.586 411.797 202.53 411.64C191.456 379.373 191.443 347.567 202.49 316.22ZM359.39 225.28C400.5 232.76 437.07 258.23 457.28 294.92C477.48 331.607 480.713 370.583 466.98 411.85C466.938 411.975 466.94 412.11 466.988 412.234C467.035 412.358 467.124 412.463 467.24 412.53L543.49 457.28C543.543 457.312 543.603 457.328 543.664 457.328C543.726 457.328 543.786 457.312 543.84 457.28C543.893 457.249 543.938 457.204 543.97 457.149C544.001 457.095 544.019 457.033 544.02 456.97V243.24C544.02 242.953 543.896 242.74 543.65 242.6L359.49 136.3C358.996 136.013 358.75 136.157 358.75 136.73V224.51C358.749 224.693 358.813 224.871 358.93 225.011C359.047 225.152 359.21 225.247 359.39 225.28ZM427.41 363.67C427.41 351.503 425.013 339.455 420.357 328.214C415.701 316.974 408.877 306.76 400.273 298.157C391.67 289.553 381.456 282.729 370.215 278.073C358.975 273.417 346.927 271.02 334.76 271.02C310.187 271.02 286.622 280.781 269.246 298.157C251.871 315.532 242.11 339.098 242.11 363.67C242.11 388.242 251.871 411.808 269.246 429.184C286.622 446.559 310.187 456.32 334.76 456.32C346.927 456.32 358.975 453.924 370.215 449.268C381.456 444.611 391.67 437.787 400.273 429.184C408.877 420.58 415.701 410.367 420.357 399.126C425.013 387.885 427.41 375.837 427.41 363.67ZM442.31 454.02C385.54 521.48 283.96 520.3 227.1 453.99C227.007 453.883 226.88 453.812 226.741 453.788C226.602 453.764 226.46 453.79 226.34 453.86L150.23 497.96C150.159 498.002 150.101 498.061 150.06 498.132C150.02 498.203 149.998 498.283 149.998 498.365C149.998 498.447 150.02 498.527 150.06 498.598C150.101 498.669 150.159 498.729 150.23 498.77L333.96 604.84C334.209 604.986 334.492 605.064 334.78 605.066C335.068 605.067 335.351 604.993 335.6 604.85L518.84 499.04C518.902 499.004 518.954 498.952 518.99 498.89C519.026 498.828 519.045 498.757 519.045 498.685C519.045 498.613 519.026 498.542 518.99 498.48C518.954 498.418 518.902 498.366 518.84 498.33L443.11 453.89C442.984 453.815 442.835 453.787 442.689 453.81C442.543 453.834 442.409 453.908 442.31 454.02Z" fill="#46B58B"/>
<path d="M719.31 274.5L719.32 340.54C719.32 340.795 719.421 341.039 719.601 341.219C719.781 341.399 720.025 341.5 720.28 341.5L784.01 341.48C784.084 341.48 784.156 341.51 784.208 341.562C784.261 341.615 784.29 341.686 784.29 341.76L784.28 388.72C784.28 388.856 784.227 388.985 784.134 389.081C784.04 389.177 783.913 389.23 783.78 389.23L719.92 389.22C719.758 389.22 719.603 389.284 719.489 389.399C719.374 389.513 719.31 389.668 719.31 389.83V455.57C719.31 456.224 719.633 456.55 720.28 456.55L814.44 456.53C814.546 456.53 814.648 456.573 814.723 456.65C814.798 456.727 814.84 456.832 814.84 456.94L814.88 503.75C814.88 504.17 814.67 504.38 814.25 504.38C776.23 504.334 738.117 504.324 699.91 504.35C694.33 504.357 690.42 504.027 688.18 503.36C678.14 500.38 671.69 490.98 671.68 480.5C671.627 406.447 671.573 332.394 671.52 258.34C671.513 250.827 672.013 245.484 673.02 242.31C675.387 234.85 680.247 229.934 687.6 227.56C690.867 226.507 696.86 225.987 705.58 226C741.527 226.054 777.437 226.057 813.31 226.01C813.469 226.01 813.622 226.073 813.734 226.186C813.847 226.299 813.91 226.451 813.91 226.61L813.9 273.29C813.9 273.433 813.843 273.571 813.742 273.672C813.641 273.773 813.503 273.83 813.36 273.83L720 273.82C719.54 273.82 719.31 274.047 719.31 274.5Z" fill="#0B4461"/>
<path d="M1531.96 226.071L1484.86 225.989C1484.68 225.989 1484.52 226.141 1484.52 226.328L1484.46 264.528C1484.46 264.716 1484.61 264.868 1484.8 264.869L1531.9 264.951C1532.08 264.951 1532.24 264.799 1532.24 264.612L1532.3 226.412C1532.3 226.224 1532.15 226.071 1531.96 226.071Z" fill="#0B4461"/>
<path d="M1616.12 226.04H1569.26C1569.01 226.04 1568.81 226.242 1568.81 226.49V503.91C1568.81 504.159 1569.01 504.36 1569.26 504.36H1616.12C1616.37 504.36 1616.57 504.159 1616.57 503.91V226.49C1616.57 226.242 1616.37 226.04 1616.12 226.04Z" fill="#0B4461"/>
<path d="M1532.21 288.32H1485.39C1485.05 288.32 1484.78 288.593 1484.78 288.93V503.75C1484.78 504.087 1485.05 504.36 1485.39 504.36H1532.21C1532.55 504.36 1532.82 504.087 1532.82 503.75V288.93C1532.82 288.593 1532.55 288.32 1532.21 288.32Z" fill="#0B4461"/>
<path d="M947.73 494.09C897.79 521.9 834.68 491.73 824.61 435.18C823.803 430.667 823.403 424.024 823.41 415.251C823.423 403.664 823.41 392.081 823.37 380.501C823.343 371.467 823.637 364.814 824.25 360.541C830.83 314.971 873.24 283.141 919.21 289.701C956.13 294.971 984.86 324.27 990.2 360.99C990.211 361.071 990.207 361.154 990.187 361.233C990.167 361.312 990.132 361.386 990.084 361.451C990.035 361.516 989.975 361.571 989.905 361.612C989.836 361.653 989.759 361.68 989.68 361.691L943.27 367.921C943.164 367.935 943.057 367.907 942.971 367.844C942.885 367.78 942.827 367.686 942.81 367.58C938.48 339.39 904.99 326.491 883.11 345.951C875.23 352.971 871.29 362.397 871.29 374.231C871.29 388.324 871.28 402.407 871.26 416.481C871.253 422.567 871.627 427.05 872.38 429.93C876.06 444.06 888.85 454.811 903.02 456.351C922.54 458.491 938.35 445.851 942.79 426.721C942.883 426.334 943.127 426.171 943.52 426.231L988.75 433.37C988.95 433.401 989.142 433.473 989.313 433.58C989.485 433.688 989.633 433.829 989.748 433.996C989.863 434.163 989.943 434.351 989.983 434.549C990.023 434.748 990.022 434.952 989.98 435.15C984.34 461.904 970.256 481.55 947.73 494.09Z" fill="#0B4461"/>
<path d="M1326.91 308.26C1376.8 264.16 1452.3 299.67 1452.18 365.5C1452.09 411.586 1452.02 457.676 1451.97 503.77C1451.97 504.15 1451.78 504.34 1451.4 504.34L1404.78 504.36C1404.43 504.36 1404.26 504.186 1404.26 503.84C1404.24 457.7 1404.24 411.59 1404.25 365.51C1404.26 352.06 1397.37 341.68 1384.46 337.69C1370.84 333.47 1354.6 342.31 1351.12 356.85C1350.57 359.163 1350.29 363.446 1350.29 369.7C1350.29 414.38 1350.29 459.08 1350.3 503.8C1350.3 503.945 1350.24 504.085 1350.14 504.188C1350.04 504.292 1349.9 504.35 1349.75 504.35L1303.07 504.37C1302.74 504.37 1302.58 504.203 1302.58 503.87C1302.4 457.716 1302.3 411.596 1302.27 365.51C1302.26 360.836 1301.81 357.223 1300.92 354.67C1294.34 335.82 1271.24 330.82 1256.69 344.46C1253.63 347.326 1251.46 350.796 1250.18 354.87C1249.39 357.39 1249 361.35 1249 366.75C1249.01 412.476 1248.89 458.203 1248.65 503.93C1248.65 504.044 1248.6 504.153 1248.52 504.234C1248.44 504.314 1248.33 504.36 1248.22 504.36H1201.26C1201.14 504.36 1201.03 504.312 1200.94 504.228C1200.86 504.143 1200.81 504.029 1200.81 503.91C1200.68 458.15 1200.6 412.513 1200.55 367C1200.54 350.63 1204.47 334.65 1214.99 320.19C1241.84 283.26 1291.88 278.51 1326.03 308.27C1326.32 308.523 1326.62 308.52 1326.91 308.26Z" fill="#0B4461"/>
<path d="M1688.49 414.97C1686.73 434.44 1698.61 452.31 1717.79 455.68C1720.22 456.107 1726.88 456.317 1737.75 456.31C1760.39 456.303 1783.03 456.3 1805.67 456.3C1806 456.3 1806.17 456.467 1806.17 456.8L1806.2 503.71C1806.2 503.997 1806.06 504.14 1805.77 504.14C1781.58 504.16 1757.36 504.163 1733.12 504.15C1723.72 504.143 1717.07 503.883 1713.16 503.37C1676.7 498.61 1647.53 470.02 1641.66 433.83C1640.94 429.37 1640.57 422.723 1640.55 413.89C1640.52 399.423 1640.53 384.96 1640.57 370.5C1640.59 363.1 1641.82 355.543 1644.26 347.83C1660.88 295.38 1722.75 272.03 1769.45 301.95C1792.9 316.97 1807.71 342.52 1807.98 370.74C1808.04 377.093 1808.06 383.44 1808.05 389.78C1808.02 400.72 1802.43 409.68 1791.99 413.1C1789.07 414.053 1784.36 414.517 1777.87 414.49C1748.24 414.363 1718.61 414.37 1688.99 414.51C1688.68 414.51 1688.52 414.663 1688.49 414.97ZM1759.88 365.85C1750.5 327.06 1699.31 327.12 1688.97 365.31C1688.73 366.21 1689.07 366.66 1690 366.66H1759.25C1759.35 366.66 1759.45 366.637 1759.54 366.594C1759.62 366.55 1759.7 366.487 1759.76 366.409C1759.82 366.331 1759.87 366.24 1759.89 366.143C1759.91 366.046 1759.9 365.946 1759.88 365.85Z" fill="#0B4461"/>
<path d="M1889.92 456.31L1970.02 456.3C1970.21 456.3 1970.4 456.376 1970.54 456.511C1970.67 456.646 1970.75 456.829 1970.75 457.02L1970.74 503.74C1970.74 503.849 1970.7 503.953 1970.62 504.03C1970.54 504.107 1970.44 504.15 1970.33 504.15C1932.86 504.157 1895.38 504.16 1857.89 504.16C1848.46 504.16 1842.26 503.663 1839.28 502.67C1828.36 499.03 1821.21 485.91 1824.31 474.46C1824.92 472.2 1826.81 468.367 1829.96 462.96C1854.41 421.013 1878.8 379.113 1903.15 337.26C1903.4 336.827 1903.27 336.61 1902.77 336.61L1825.22 336.64C1824.94 336.64 1824.8 336.5 1824.8 336.22V289.25C1824.8 289.152 1824.84 289.058 1824.91 288.988C1824.98 288.919 1825.08 288.88 1825.18 288.88C1865.35 288.9 1905.54 288.917 1945.75 288.93C1961.01 288.94 1971.53 303 1968.47 317.77C1967.92 320.397 1966.58 323.547 1964.43 327.22C1939.46 370.047 1914.51 412.887 1889.59 455.74C1889.36 456.12 1889.47 456.31 1889.92 456.31Z" fill="#0B4461"/>
<path d="M1174.27 422C1174.35 461.36 1145.32 494.68 1107.13 502.7C1061.02 512.39 1016.3 481.32 1008.04 435.66C1007.19 430.973 1006.77 424.34 1006.76 415.76C1006.74 400.5 1006.73 385.247 1006.73 370C1006.74 340.84 1025.45 311.99 1051.63 298.38C1101.97 272.2 1163.72 302.4 1173.17 358.81C1173.91 363.23 1174.27 369.877 1174.26 378.75C1174.23 393.17 1174.24 407.587 1174.27 422ZM1080.51 338.05C1065.19 342.69 1054.41 356.68 1054.46 373C1054.51 387.18 1054.52 401.37 1054.51 415.57C1054.5 421.763 1054.94 426.517 1055.83 429.83C1058.65 440.343 1064.89 447.993 1074.54 452.78C1094.98 462.92 1119.38 451.73 1125.16 430.24C1126.09 426.78 1126.55 421.41 1126.53 414.13C1126.49 401.523 1126.48 388.91 1126.5 376.29C1126.51 370.77 1126.09 366.453 1125.22 363.34C1119.9 344.19 1099.86 332.18 1080.51 338.05Z" fill="#0B4461"/>
<path d="M297.29 411.96C273.23 418.51 257.03 388.57 274.59 371.7C276.017 370.327 278.937 368.35 283.35 365.77C299.62 356.24 309.35 341.18 310.69 322.1C310.92 318.72 310.91 315.13 311.96 312.03C319.51 289.86 349.69 289.49 357.4 311.66C359.36 317.3 358.49 323.74 359.79 329.76C363.09 345.07 371.64 356.64 384.82 364.82C388.49 367.1 392.68 369.18 395.5 372.05C406.06 382.79 404.1 400.51 391.54 408.86C385.534 412.854 378.904 413.814 371.65 411.74C369.764 411.2 366.817 409.767 362.81 407.44C347.5 398.55 330.41 396.98 313.79 403.81C309.07 405.75 302.64 410.51 297.29 411.96Z" fill="#46B58B"/>
</g>
<defs>
<clipPath id="clip0_366_74">
<rect width="2048" height="696" fill="white"/>
</clipPath>
</defs>
</svg>
