<svg width="512" height="512" viewBox="0 0 512 512" fill="none" xmlns="http://www.w3.org/2000/svg">
<path fill-rule="evenodd" clip-rule="evenodd" d="M365 107.016C409.39 117.316 426.371 143.273 447.66 179H365V107.016ZM105.578 182C114.27 182 120.578 186.195 120.578 196C120.578 204.27 113.887 210.977 105.621 211H15C6.715 211 0 217.719 0 226C0 234.285 6.715 241 15 241H150C158.363 241 165.059 247.71 165.059 256C165.059 264.285 158.344 271 150.059 271H15C6.715 271 0 277.715 0 286C0 294.285 6.715 301 15 301H48V346C48 354.285 54.715 361 63 361H93.152C98.527 387.477 121.922 407 149.5 407C177.078 407 200.473 387.477 205.848 361H358.152C363.527 387.477 386.922 407 414.5 407C442.078 407 465.473 387.477 470.848 361H497C505.285 361 512 354.285 512 346V256C512 211.988 465.578 209.066 465.535 209H350C341.715 209 335 202.285 335 194V104H63C54.715 104 48 110.715 48 119V152H30C21.715 152 15 158.715 15 167C15 175.285 21.715 182 30 182H105.578ZM433.945 330.055C444.684 340.793 444.684 358.211 433.945 368.949C416.672 386.223 387 373.934 387 349.5C387 325.07 416.672 312.781 433.945 330.055ZM168.945 330.055C179.684 340.793 179.684 358.211 168.945 368.949C151.672 386.223 122 373.934 122 349.5C122 325.07 151.672 312.781 168.945 330.055Z" fill="#0B4461"/>
</svg>
