<svg xmlns="http://www.w3.org/2000/svg" version="1.1" xmlns:xlink="http://www.w3.org/1999/xlink" width="512" height="512" x="0" y="0" viewBox="0 0 512 512" style="enable-background:new 0 0 512 512" xml:space="preserve" class=""><g><path d="M256 150c-57.897 0-105 47.103-105 105s47.103 105 105 105 105-47.103 105-105-47.102-105-105-105zm70.607 85.607-80 80C243.678 318.535 239.839 320 236 320s-7.678-1.465-10.606-4.394l-40-40c-5.858-5.857-5.858-15.355 0-21.213 5.857-5.857 15.355-5.857 21.213 0L236 283.787l69.394-69.394c5.857-5.857 15.355-5.857 21.213 0 5.858 5.858 5.858 15.356 0 21.214z" fill="#0B4461" opacity="1" data-original="#000000"></path><path d="M436 80c-60.479 0-117.339-23.552-160.104-66.317l-9.289-9.289c-5.856-5.859-15.355-5.857-21.213 0l-9.29 9.289C193.339 56.448 136.48 80 76 80c-8.284 0-15 6.716-15 15v149.622c0 120.271 76.401 227.393 190.115 266.561a15 15 0 0 0 9.77 0C374.599 472.015 451 364.892 451 244.622V95c0-8.284-6.716-15-15-15zM256 390c-74.439 0-135-60.561-135-135s60.561-135 135-135 135 60.561 135 135-60.56 135-135 135z" fill="#0B4461" opacity="1" data-original="#000000"></path></g></svg>