<svg xmlns="http://www.w3.org/2000/svg" version="1.1" xmlns:xlink="http://www.w3.org/1999/xlink" width="512" height="512" x="0" y="0" viewBox="0 0 513.067 513.067" style="enable-background:new 0 0 512 512" xml:space="preserve"><g><path d="M421.867 237.867s-9.6 2.133-26.667 5.333c-17.067 4.267-41.6 9.6-70.4 18.133-14.933 4.267-30.933 9.6-46.933 16s-34.133 14.933-51.2 27.733c-4.267 3.2-8.533 7.467-12.8 11.733l-3.2 4.267-1.067 2.134-2.133 3.2c-1.067 2.133-2.133 3.2-3.2 5.333l-1.067 3.2V336s-1.067 3.2-1.067 2.133v3.2c0 2.133-1.067 5.333 0 7.467 0 2.133 0 5.333 1.067 7.467 0 2.133 1.067 4.267 2.133 6.4 3.2 7.467 7.467 12.8 10.667 18.133 16 18.133 32 29.867 48 42.667 7.467 6.4 14.933 11.733 21.333 18.133 3.2 2.133 5.333 5.333 6.4 7.467-3.2 2.133-8.533 3.2-13.867 5.333-13.867 4.267-30.933 5.333-45.867 6.4-16 1.067-30.933 1.067-45.867 0-28.8-1.067-52.267-3.2-69.333-4.267-8.533-1.067-14.933-2.133-19.2-2.133-4.267-1.067-6.4-1.067-6.4-1.067l-5.333 56.533s10.667 1.067 27.733 2.133c18.133 1.067 42.667 1.067 73.6 1.067 14.933 0 32-1.067 49.067-3.2 18.133-2.133 36.267-5.333 56.533-11.733 9.6-3.2 20.267-7.467 29.867-16 2.133-2.133 5.333-4.267 7.467-7.467 1.067-1.067 2.133-3.2 3.2-4.267l1.067-2.133 1.067-1.067 1.067-2.133 1.067-2.133v-3.2c1.067-3.2 1.067-6.4 0-8.533 0-5.333-2.133-8.533-3.2-12.8-7.467-13.867-16-20.267-23.467-27.733-8.533-6.4-17.067-12.8-24.533-18.133-16-11.733-33.067-22.4-43.733-34.133-3.2-3.2-4.267-5.333-5.333-7.467s-1.067-2.133 0-2.133l1.067-3.2 1.067-1.067s2.133-2.133 2.133-3.2l7.467-7.467c11.733-10.667 27.733-18.133 42.667-25.6 14.933-7.467 29.867-12.8 42.667-18.133 27.733-9.6 51.2-17.067 67.2-21.333 8.533-2.133 14.933-4.267 19.2-5.333 4.267-1.067 6.4-2.133 6.4-2.133l-5.336-23.468zM296 453.333V451.2v2.133c0 1.067 0 1.067 0 0zm0-7.466z" style="" fill="#435B6C" data-original="#435b6c"></path><path d="M88 250.667c-48 0-87.467 38.4-87.467 86.4S88 509.867 88 509.867s87.467-124.8 87.467-172.8S136 250.667 88 250.667z" style="" fill="#67C6B9" data-original="#67c6b9"></path><circle cx="88" cy="338.133" r="51.2" style="" fill="#FFFFFF" data-original="#ffffff"></circle><path d="m102.933 363.733-4.267-10.667H77.333l-4.267 10.667h-12.8l22.4-51.2h10.667l22.4 51.2h-12.8zM88 327.467 81.6 342.4h12.8L88 327.467z" style="" fill="#F3705B" data-original="#f3705b"></path><path d="M425.067 0c-48 0-87.467 38.4-87.467 86.4s87.467 172.8 87.467 172.8 87.467-124.8 87.467-172.8S473.067 0 425.067 0z" style="" fill="#FFD15D" data-original="#ffd15d"></path><circle cx="425.067" cy="86.4" r="51.2" style="" fill="#FFFFFF" data-original="#ffffff"></circle><path d="M447.467 90.667c-2.133-2.133-4.267-3.2-7.467-4.267 1.067-1.067 2.133-1.067 2.133-1.067s1.067-1.067 2.133-1.067c2.133-2.133 4.267-5.333 4.267-8.533 0-3.2-1.067-6.4-3.2-8.533-1.067-1.067-3.2-2.133-5.333-3.2-2.133-1.067-5.333-1.067-8.533-1.067H411.2v51.2h22.4c7.467 0 11.733-1.067 14.933-4.267 2.133-3.2 3.2-6.4 3.2-9.6-1.066-5.333-2.133-7.466-4.266-9.599zm-26.667-19.2h6.4c3.2 0 5.333 0 7.467 1.067 1.067 1.067 2.133 2.133 2.133 4.267 0 2.133-1.067 4.267-2.133 4.267-1.067 1.067-4.267 1.067-7.467 1.067h-5.333V71.467H420.8zm16 29.866c-2.133 1.067-4.267 1.067-7.467 1.067h-7.467V90.667h6.4c4.267 0 6.4 0 8.533 1.067 2.133 1.067 2.133 2.133 2.133 4.267.001 3.199-1.065 5.332-2.132 5.332z" style="" fill="#F3705B" data-original="#f3705b"></path></g></svg>