<svg xmlns="http://www.w3.org/2000/svg" version="1.1" xmlns:xlink="http://www.w3.org/1999/xlink" width="512" height="512" x="0" y="0" viewBox="0 0 468.001 468.001" style="enable-background:new 0 0 512 512" xml:space="preserve"><g><path fill="#FDBF38" d="M100.246 262.622h49.527v171.074h-49.527z" opacity="1" data-original="#fdbf38"></path><path fill="#E54A91" d="M5.001 310.417h49.527v123.28H5.001z" opacity="1" data-original="#e54a91"></path><path fill="#6262F4" d="M195.491 214.828h49.527v198.823h-49.527z" opacity="1" data-original="#6262f4"></path><path fill="#25B79B" d="M290.736 157.476h49.527v276.221h-49.527z" opacity="1" data-original="#25b79b"></path><path fill="#DFDEF9" d="M328.65 90.357a5.004 5.004 0 0 0-3.37-2.498l-23.209-4.826a5 5 0 1 0-2.035 9.791l10.113 2.103L2.558 267.174a5 5 0 0 0-1.919 6.806c1.286 2.296 4.515 3.2 6.806 1.919l307.216-172.035-3.735 9.765a5 5 0 0 0 2.884 6.456c2.398.918 5.53-.461 6.456-2.884l8.667-22.659a5.003 5.003 0 0 0-.283-4.185zM107.544 44.483a5 5 0 0 1-5-5V19.016c0-2.768-2.243-5.02-5-5.02H60.458c-2.757 0-5 2.252-5 5.02v20.468a5 5 0 1 1-10 0V19.016c0-8.282 6.729-15.02 15-15.02h37.086c8.271 0 15 6.738 15 15.02v20.468a4.999 4.999 0 0 1-5 4.999z" opacity="1" data-original="#dfdef9"></path><path fill="#E54A91" d="M147.715 46.112H10.287v83.608c0 5.523 4.477 10 10 10h117.429c5.523 0 10-4.477 10-10V46.112z" opacity="1" data-original="#e54a91"></path><path fill="#F761A6" d="M143.001 35.475h-128c-5.523 0-10 4.486-10 10.02v19.363a6.01 6.01 0 0 0 4.5 5.821l69.5 17.983 69.5-17.983a6.01 6.01 0 0 0 4.5-5.821V45.494c0-5.533-4.477-10.019-10-10.019z" opacity="1" data-original="#f761a6"></path><path fill="#DFDEF9" d="M69.001 77.692h20v20.044h-20z" opacity="1" data-original="#dfdef9"></path><ellipse cx="284.671" cy="358.772" fill="#AC9EF9" rx="105" ry="105.233" opacity="1" data-original="#ac9ef9"></ellipse><ellipse cx="284.671" cy="358.772" fill="#FFFFFF" rx="67" ry="67.149" opacity="1" data-original="#ffffff"></ellipse><ellipse cx="284.671" cy="358.772" fill="#E54A91" rx="27.715" ry="27.776" opacity="1" data-original="#e54a91"></ellipse><path fill="#E54A91" d="m391.358 252.602-.391-.132a61.78 61.78 0 0 1 10.001-56.706l.513-.661c11.314-14.589 34.5-9.101 38.105 9.02l.761.157c18.003 3.711 23.384 26.869 8.868 38.169l-.514.4a61.427 61.427 0 0 1-57.343 9.753z" opacity="1" data-original="#e54a91"></path><path fill="#DFDEF9" d="M284.9 363.772c-4.193 0-6.504-5.562-3.539-8.531l178.101-178.497a4.998 4.998 0 0 1 7.07-.008 5 5 0 0 1 .008 7.071L288.439 362.303a4.977 4.977 0 0 1-3.539 1.469z" opacity="1" data-original="#dfdef9"></path><ellipse cx="406.001" cy="62.114" fill="#FDBF38" rx="57" ry="57.127" opacity="1" data-original="#fdbf38"></ellipse><path fill="#FFFFFF" d="M410.027 56.677V39.815a22.919 22.919 0 0 1 9.525 4.375c2.876 2.006 7.146-.752 7.182-4.094a4.438 4.438 0 0 0-1.282-3.147c-4.324-3.765-9.802-6.063-15.475-6.502V24.94c0-1.999-1.6-3.625-3.492-3.625-2.096 0-3.833 1.403-3.866 3.625v5.31c-11.159.997-18.907 8.252-18.907 17.779 0 11.395 8.896 14.917 18.907 17.693v19.326a25.195 25.195 0 0 1-12.396-5.749c-2.961-2.393-7.457.326-7.412 3.969a4.432 4.432 0 0 0 1.272 3.139c5.126 4.692 11.708 7.45 18.585 7.796v5.086c.229 2.032 1.555 3.749 3.779 3.631 1.973 0 3.579-1.629 3.579-3.631v-5.204c14.113-1.149 19.158-10.427 19.158-18.799-.001-12.146-9.815-16.012-19.157-18.609zm8.947 19.728c0 3.594-2.366 7.719-8.947 8.749V67.958c5.431 1.643 8.992 3.774 8.947 8.447zm-16.305-37V54.74c-4.948-1.512-8.649-3.118-8.649-7.323 0-4.309 3.375-7.41 8.649-8.012z" opacity="1" data-original="#ffffff"></path><path fill="#F6B545" d="m208.482 59.804-5.81 1.231 6.719 1.906a9.999 9.999 0 0 1 7.035 7.461l1.246 5.633 1.246-5.633a9.999 9.999 0 0 1 7.035-7.461l6.719-1.906-5.81-1.231a10 10 0 0 1-7.643-7.417l-1.547-6.352-1.547 6.352a10.002 10.002 0 0 1-7.643 7.417z" opacity="1" data-original="#f6b545"></path><path fill="#E54A91" d="m423.595 326.769-5.81 1.231 6.719 1.906a9.999 9.999 0 0 1 7.035 7.461l1.246 5.633 1.246-5.633a9.999 9.999 0 0 1 7.035-7.461l6.719-1.906-5.81-1.231a10 10 0 0 1-7.643-7.417L432.785 313l-1.547 6.352a10 10 0 0 1-7.643 7.417z" opacity="1" data-original="#e54a91"></path></g></svg>